<svg xmlns="http://www.w3.org/2000/svg" xmlns:xlink="http://www.w3.org/1999/xlink" width="2000" zoomAndPan="magnify" viewBox="0 0 1500 1499.999933" height="2000" preserveAspectRatio="xMidYMid meet" version="1.0"><defs><g/><clipPath id="a6568804e7"><path d="M 750 0 C 335.785156 0 0 335.785156 0 750 C 0 1164.214844 335.785156 1500 750 1500 C 1164.214844 1500 1500 1164.214844 1500 750 C 1500 335.785156 1164.214844 0 750 0 Z M 750 0 " clip-rule="nonzero"/></clipPath><clipPath id="a4ff674850"><path d="M 0 0 L 1500 0 L 1500 1500 L 0 1500 Z M 0 0 " clip-rule="nonzero"/></clipPath><clipPath id="8565b100aa"><path d="M 750 0 C 335.785156 0 0 335.785156 0 750 C 0 1164.214844 335.785156 1500 750 1500 C 1164.214844 1500 1500 1164.214844 1500 750 C 1500 335.785156 1164.214844 0 750 0 Z M 750 0 " clip-rule="nonzero"/></clipPath><clipPath id="828208199c"><rect x="0" width="1500" y="0" height="1500"/></clipPath><clipPath id="adaa97e00d"><rect x="0" width="806" y="0" height="1192"/></clipPath></defs><g clip-path="url(#a6568804e7)"><g transform="matrix(1, 0, 0, 1, 0, 0.000000000000112861)"><g clip-path="url(#828208199c)"><g clip-path="url(#a4ff674850)"><g clip-path="url(#8565b100aa)"><rect x="-330" width="2160" fill="#7e1037" height="2159.999904" y="-329.999985" fill-opacity="1"/></g></g></g></g></g><g transform="matrix(1, 0, 0, 1, 348, 154)"><g clip-path="url(#adaa97e00d)"><g fill="#ffffff" fill-opacity="1"><g transform="translate(0.333255, 969.559306)"><g><path d="M 783.859375 -217.015625 L 740.671875 -217.015625 L 740.671875 -115.53125 C 650.703125 -37.070312 544.171875 2.15625 421.078125 2.15625 C 307.347656 2.15625 211.972656 -33.832031 134.953125 -105.8125 C 57.941406 -177.789062 19.4375 -270.285156 19.4375 -383.296875 C 19.4375 -492.703125 57.941406 -584.832031 134.953125 -659.6875 C 211.972656 -734.550781 305.550781 -771.984375 415.6875 -771.984375 C 493.425781 -771.984375 561.445312 -751.46875 619.75 -710.4375 C 678.050781 -669.414062 707.203125 -611.832031 707.203125 -537.6875 C 707.203125 -487.300781 689.382812 -444.113281 653.75 -408.125 C 618.125 -372.132812 575.117188 -354.140625 524.734375 -354.140625 C 483.703125 -354.140625 448.609375 -366.195312 419.453125 -390.3125 C 390.304688 -414.425781 375.734375 -446.640625 375.734375 -486.953125 C 375.734375 -513.578125 387.609375 -538.945312 411.359375 -563.0625 C 435.117188 -587.175781 460.316406 -599.234375 486.953125 -599.234375 L 486.953125 -523.65625 C 467.515625 -515.738281 457.796875 -503.503906 457.796875 -486.953125 C 457.796875 -469.671875 463.910156 -456.890625 476.140625 -448.609375 C 488.378906 -440.335938 503.5 -436.203125 521.5 -436.203125 C 549.570312 -436.203125 573.863281 -446.097656 594.375 -465.890625 C 614.882812 -485.679688 625.140625 -509.613281 625.140625 -537.6875 C 625.140625 -588.070312 603.90625 -626.039062 561.4375 -651.59375 C 518.976562 -677.15625 470.394531 -689.9375 415.6875 -689.9375 C 386.175781 -689.9375 358.460938 -686.335938 332.546875 -679.140625 L 332.546875 -88.53125 C 359.898438 -82.769531 386.535156 -79.890625 412.453125 -79.890625 C 431.878906 -79.890625 460.3125 -82.050781 497.75 -86.375 L 497.75 -217.015625 L 391.9375 -217.015625 L 391.9375 -299.078125 L 783.859375 -299.078125 Z M 783.859375 -217.015625 "/></g></g></g></g></g></svg>